<svg xmlns="http://www.w3.org/2000/svg" width="50" height="50" viewBox="0 0 50 50">
  <path id="imagecontent-2" d="M947.707,2519a12.6,12.6,0,0,1,1.2.54,3.108,3.108,0,0,1,1.431,1.76c.118.38.308.44.672.44h12.553a3.376,3.376,0,0,1,.45,0,.706.706,0,0,1,.287.06.642.642,0,0,1,.236.18.663.663,0,0,1,.147.24.722.722,0,0,1,.034.29.665.665,0,0,1-.05.27.728.728,0,0,1-.155.24.714.714,0,0,1-.235.15.68.68,0,0,1-.279.06h-2.783a3.387,3.387,0,0,0,.277,1.95c2.276,4.16,4.513,8.35,6.782,12.52a1.539,1.539,0,0,0,.569.55.971.971,0,0,1,.339.25.95.95,0,0,1,.21.35.976.976,0,0,1,.045.41.954.954,0,0,1-.127.39c-.593,1.06-1.2,2.11-1.858,3.09a1.277,1.277,0,0,1-.79.45,17.894,17.894,0,0,1-1.795,0,.977.977,0,0,1-.3-.04,1.026,1.026,0,0,1-.255-.15.772.772,0,0,1-.175-.24.733.733,0,0,1-.065-.28.675.675,0,0,1,.037-.31.664.664,0,0,1,.169-.26.727.727,0,0,1,.269-.17.673.673,0,0,1,.315-.03,1.854,1.854,0,0,0,2.285-1.38,5.725,5.725,0,0,1,.434-.77H953.257c.411.7.79,1.37,1.217,2.02.063.09.3.09.459.09h6.245c.553,0,.917.34.885.78a.762.762,0,0,1-.286.51.8.8,0,0,1-.576.17h-6.853a1.095,1.095,0,0,1-1.068-.58c-.569-.98-1.154-1.94-1.715-2.92a1.038,1.038,0,0,1-.172-.43,1.016,1.016,0,0,1,.287-.86,1.035,1.035,0,0,1,.4-.25.968.968,0,0,0,.411-.37q3.557-6.48,6.98-12.98a5.268,5.268,0,0,0,.261-1.64h-8.743c-.34,0-.522.06-.64.42a3.471,3.471,0,0,1-.975,1.44,3.572,3.572,0,0,1-1.563.82v2.42h.712a1.261,1.261,0,0,1,.883.36,1.209,1.209,0,0,1,.366.86v1.9a.749.749,0,0,1,.013.35.844.844,0,0,1-.148.32.8.8,0,0,1-.278.22.8.8,0,0,1-.7,0,.8.8,0,0,1-.278-.22.83.83,0,0,1-.148-.32.749.749,0,0,1,.013-.35v-1.6H945.81v16.83h2.467v-11.29c0-.72.268-1.1.79-1.1s.791.38.791,1.1v11.41c2.561.4,2.806,2.18,2.632,4.24h1.32a2.416,2.416,0,0,1,1.642.64,2.275,2.275,0,0,1,.73,1.57c.047.67,0,1.36,0,2.11h14.64c.79,0,1.17.23,1.177.77s-.363.77-1.162.77h-1.075v8.67h1.3c.616,0,.956.29.94.77s-.363.72-.948.72H939.146v1a.974.974,0,0,1-.143.56,1.062,1.062,0,0,1-.435.4.992.992,0,0,1-.587.1,1.089,1.089,0,0,1-.55-.22c-.5-.33-1-.66-1.478-1a.4.4,0,0,0-.569,0c-.427.3-.878.58-1.313.88a1.164,1.164,0,0,1-.631.32,1.216,1.216,0,0,1-.705-.09,1.2,1.2,0,0,1-.476-.52,1.131,1.131,0,0,1-.085-.69v-.74h-.632a42.751,42.751,0,0,1-4.387-.09,5.933,5.933,0,0,1-3.539-1.75,5.654,5.654,0,0,1-1.6-3.54,5.74,5.74,0,0,1,1.125-3.86,6.015,6.015,0,0,1,3.413-2.23,7.022,7.022,0,0,1,1.581-.18h9.628v-1.87a2.342,2.342,0,0,1,.159-.99,2.418,2.418,0,0,1,1.431-1.38,2.515,2.515,0,0,1,1.019-.14h1.241v-1.07a2.765,2.765,0,0,1,.084-1.14,2.825,2.825,0,0,1,.54-1.01,2.89,2.89,0,0,1,.907-.72,2.928,2.928,0,0,1,1.125-.3v-16.48c0-1.32.45-1.96,1.81-1.88a.508.508,0,0,0,.174,0v-2.31a6.744,6.744,0,0,1-1.336-.74,3.845,3.845,0,0,1-1.083-1.35.864.864,0,0,0-.132-.33.845.845,0,0,0-.256-.26.827.827,0,0,0-.338-.13.751.751,0,0,0-.365,0h-8.355a3.469,3.469,0,0,0,.205,1.79c2.308,4.23,4.585,8.48,6.877,12.7a1.37,1.37,0,0,0,.546.5,1,1,0,0,1,.342.25.929.929,0,0,1,.212.36.993.993,0,0,1,.047.41.955.955,0,0,1-.127.39c-.593,1.05-1.193,2.1-1.858,3.09a1.24,1.24,0,0,1-.381.32,1.153,1.153,0,0,1-.48.14H927.423a1.042,1.042,0,0,1-.94-.54c-.585-.98-1.178-1.96-1.747-2.95a1.037,1.037,0,0,1-.164-.43,1.007,1.007,0,0,1,.045-.46,1.034,1.034,0,0,1,.64-.65.919.919,0,0,0,.411-.37q3.558-6.48,6.98-12.98a5.068,5.068,0,0,0,.246-1.63h-2.8a.8.8,0,0,1-.477-.12.752.752,0,0,1-.313-.37.659.659,0,0,1-.043-.33.668.668,0,0,1,.12-.32.654.654,0,0,1,.258-.23.667.667,0,0,1,.337-.09,3.376,3.376,0,0,1,.45,0h12.624c.317,0,.483-.05.6-.4a3.328,3.328,0,0,1,.871-1.31,3.632,3.632,0,0,1,1.382-.79c.135-.04.261-.11.395-.16Zm-15.549,41.02c-.79-.11-1.083-.33-1.051-.83s.34-.69,1.107-.69h12.948a1.415,1.415,0,0,1,.846.27.826.826,0,0,1,.155.35.79.79,0,0,1-.037.39.95.95,0,0,1-.318.29,1.044,1.044,0,0,1-.417.15h-6.2v5.39h29v-1.74H951.976a.713.713,0,0,1-.5-.2.685.685,0,0,1-.211-.49.745.745,0,0,1,.188-.5.774.774,0,0,1,.484-.27,4.133,4.133,0,0,1,.5,0h15.746v-2.16H952.118a1.159,1.159,0,0,1-.322-.04.775.775,0,0,1-.278-.17.807.807,0,0,1-.188-.25.783.783,0,0,1-.065-.31.722.722,0,0,1,.79-.72h16.118v-1.78H947.945a2.563,2.563,0,0,1-.554,0,.777.777,0,0,1-.743-.77.784.784,0,0,1,.236-.5.758.758,0,0,1,.515-.21,3.39,3.39,0,0,1,.451,0h6.893v-1.59c0-.96-.308-1.25-1.289-1.25H940.585a1.722,1.722,0,0,0-.451,0,.848.848,0,0,0-.542.24.825.825,0,0,0-.248.53c-.055.69,0,1.39,0,2.11h4.1c.877,0,1.28.25,1.265.77s-.4.77-1.289.77H932.079a2.116,2.116,0,0,0-.866.09,2.07,2.07,0,0,0-.739.45,1.948,1.948,0,0,0-.462.72,1.878,1.878,0,0,0-.091.85v4.44a2.876,2.876,0,0,0,.079.73,1.747,1.747,0,0,0,.286.62,1.689,1.689,0,0,0,.511.46,1.905,1.905,0,0,0,.656.24,2.039,2.039,0,0,0,.7-.03Zm-3.233-3.24a4.7,4.7,0,0,0-2.7.31,4.5,4.5,0,0,0-2.046,1.74,4.2,4.2,0,0,0-.638,2.41,4.25,4.25,0,0,0,.844,2.36,4.483,4.483,0,0,0,2.018,1.51,4.57,4.57,0,0,0,2.535.21c-.79-1.34-.49-2.81-.49-4.24S928.119,2558.13,928.925,2556.78Zm3.866-18.7v-10.12h-.079l-5.486,10.12Zm33.991,0c-1.85-3.42-3.668-6.79-5.486-10.16h-.079v10.16Zm-32.292-10.13h-.1v10.13h5.533Zm25.114,10.13v-10.1h-.079l-5.47,10.1Zm-33.177,1.54c.388.67.72,1.27,1.091,1.84a.8.8,0,0,0,.238.2.79.79,0,0,0,.3.09h11.067c.126,0,.324,0,.371-.08.419-.66.791-1.34,1.249-2.06Zm7.3,20.4v7.05c.466-.31.885-.56,1.272-.85a.958.958,0,0,1,1.312,0c.4.29.83.55,1.273.84v-7.03Zm17.193-9.11v-1.47a1.162,1.162,0,0,0-.076-.47,1.3,1.3,0,0,0-.259-.4,1.228,1.228,0,0,0-.4-.26,1.12,1.12,0,0,0-.476-.1h-5.391a1.24,1.24,0,0,0-.8.3,1.139,1.139,0,0,0-.389.75v1.65Zm-5.937-28.49a1.935,1.935,0,0,0,.332,1.1,2.046,2.046,0,0,0,.9.74,2.114,2.114,0,0,0,1.167.12,2.047,2.047,0,0,0,1.041-.53,1.954,1.954,0,0,0,.461-2.15,1.985,1.985,0,0,0-.735-.89,2.018,2.018,0,0,0-1.119-.34,2.055,2.055,0,0,0-1.437.56A1.983,1.983,0,0,0,944.98,2522.42Z" transform="translate(-922 -2519)" fill="#a29632"/>
</svg>
