<svg xmlns="http://www.w3.org/2000/svg" width="49.208" height="49.22" viewBox="0 0 49.208 49.22">
  <path id="imagecontent-1" d="M971.6,2426.51v11.53a1.85,1.85,0,0,1-2.028,1.26c-.7-.05-1.4,0-2.111,0a1.667,1.667,0,0,1-.939-.32,1.616,1.616,0,0,1-.581-.8c-.053-.14-.1-.29-.136-.42a7.825,7.825,0,0,0-3.471.69,3.067,3.067,0,0,1,0,2.34,3.106,3.106,0,0,1-.694,1,3,3,0,0,1-1.038.63,2.883,2.883,0,0,1-.36,2.73,2.923,2.923,0,0,1-1.093.92,3.047,3.047,0,0,1-1.4.28c-.349,1.85-.9,2.39-2.78,2.84a8.779,8.779,0,0,1-.934,1.59,2.37,2.37,0,0,1-1.557.73,2.33,2.33,0,0,1-1.641-.52c-.759-.55-1.564-1.14-2.377-1.73a4.081,4.081,0,0,1-2.279,2.35h-1a2.736,2.736,0,0,1-1.183-.69,2.7,2.7,0,0,1-.693-1.18,2.968,2.968,0,0,1-3.388-2.16.65.65,0,0,0-.2,0,2.869,2.869,0,0,1-1.9-.33,2.81,2.81,0,0,1-1.257-1.46c-.107-.26-.2-.36-.509-.32a2.823,2.823,0,0,1-3.076-2.05,3,3,0,0,1-.062-1.33,3.062,3.062,0,0,1,.517-1.24,14.084,14.084,0,0,0-5.317-2.17,1.7,1.7,0,0,1-1.686,1.45h-2.408a1.618,1.618,0,0,1-.65-.14,1.683,1.683,0,0,1-.542-.38,1.725,1.725,0,0,1-.344-.57,1.649,1.649,0,0,1-.089-.66V2427.9a1.631,1.631,0,0,1,.094-.67,1.652,1.652,0,0,1,.36-.58,1.762,1.762,0,0,1,.563-.38,1.536,1.536,0,0,1,.669-.12h2.355a1.622,1.622,0,0,1,1.076.36,1.645,1.645,0,0,1,.595.96l.1.32h5.066a2.91,2.91,0,0,0,1.937-.67,11.189,11.189,0,0,1,8.157-2.57h.327c.114,0,0-.16,0-.23v-13.07a.528.528,0,0,0-.1-.35,5.249,5.249,0,0,1-1.519-2.72h-9.107a1.473,1.473,0,0,0,.106.2c1.52,2.46,3.122,4.92,4.672,7.38a1.359,1.359,0,0,1,.212.66v3.31a3.119,3.119,0,0,1-2.977,3.12c-2.385.08-4.77.07-7.155,0a3.037,3.037,0,0,1-2.008-.87,3.088,3.088,0,0,1-.924-1.98,34.2,34.2,0,0,1,0-3.65,1.11,1.11,0,0,1,.182-.53l4.679-7.38c.046-.07.076-.16.137-.27h-6.654a.915.915,0,0,1-.327-.06.927.927,0,0,1-.276-.18.837.837,0,0,1-.24-.61.821.821,0,0,1,.052-.32.841.841,0,0,1,.173-.27.734.734,0,0,1,.265-.18.858.858,0,0,1,.315-.07h18.4c.4,0,.569-.09.676-.5a4.864,4.864,0,0,1,1.746-2.58,4.9,4.9,0,0,1,7.68,2.53c.129.49.342.56.759.56h17.926a1.282,1.282,0,0,1,.671.09,1.309,1.309,0,0,1,.521.44v.57a1.147,1.147,0,0,1-1.124.58H964.13a1.884,1.884,0,0,0,.068.18c1.52,2.46,3.122,4.92,4.672,7.39a1.3,1.3,0,0,1,.25.65c0,1.2.046,2.41-.045,3.6a3.043,3.043,0,0,1-2.917,2.86c-2.4.07-4.808.07-7.208,0a3.124,3.124,0,0,1-2.94-3.11v-3.31a1.151,1.151,0,0,1,.16-.59c1.519-2.44,3.084-4.86,4.626-7.29.068-.11.129-.24.2-.38h-9.137a5.261,5.261,0,0,1-1.406,2.66.627.627,0,0,0-.167.42v12.49a.543.543,0,0,0,.088.24.559.559,0,0,0,.186.18q2.6,1.335,5.218,2.63a2.188,2.188,0,0,0,.873.19H965.8c.3-1.23.76-1.61,2.028-1.62a13.98,13.98,0,0,0,1.58,0,1.987,1.987,0,0,1,2.2,1.15Zm-22.885,4c-1.428,1.32-2.8,2.61-4.2,3.89a2.936,2.936,0,0,1-2.038.75,2.924,2.924,0,0,1-2.832-2.87,2.921,2.921,0,0,1,.776-2.03l1.854-1.95,1.838-1.95a.443.443,0,0,0-.091-.09h-.145a10.371,10.371,0,0,0-4.145.36,10.258,10.258,0,0,0-3.663,1.97,3.8,3.8,0,0,1-2.514.91H928.18v7.44a17.317,17.317,0,0,1,6.145,2.47,3.32,3.32,0,0,1,2.628-2.22,2.84,2.84,0,0,1,1.76.34,2.881,2.881,0,0,1,1.21,1.33c2.279-.7,3.433,0,4.231,2.53h.174a2.886,2.886,0,0,1,2.8,2.39.538.538,0,0,0,.15.19.467.467,0,0,0,.222.1,2.366,2.366,0,0,1,2.1,1.9,8.663,8.663,0,0,1-.068,1.95l2.279,1.65a.732.732,0,0,0,.3.17.8.8,0,0,0,.344.04.778.778,0,0,0,.329-.11.894.894,0,0,0,.256-.23.839.839,0,0,0,.088-.61.807.807,0,0,0-.354-.49c-.395-.3-.812-.57-1.2-.88a1.246,1.246,0,0,1-.4-.51.766.766,0,0,1-.015-.5.784.784,0,0,1,.3-.4.757.757,0,0,1,.98,0c.584.42,1.154.86,1.754,1.25a1.152,1.152,0,0,0,.586.23,1.206,1.206,0,0,0,.623-.09,1.271,1.271,0,0,0,.489-.4,1.239,1.239,0,0,0,.107-1.26,1.219,1.219,0,0,0-.46-.51c-.859-.63-1.709-1.24-2.56-1.87-.509-.38-.623-.87-.312-1.28a.84.84,0,0,1,.279-.22.828.828,0,0,1,.344-.09.848.848,0,0,1,.353.05.876.876,0,0,1,.3.19l.274.2,2.977,2.19a1.224,1.224,0,0,0,.655.28,1.293,1.293,0,0,0,.7-.14,1.236,1.236,0,0,0,.479-.43,1.167,1.167,0,0,0,.175-.62,1.609,1.609,0,0,0-.874-1.34c-.911-.65-1.83-1.3-2.727-1.96a.675.675,0,0,1-.258-.23.736.736,0,0,1-.131-.31.8.8,0,0,1,.021-.35.708.708,0,0,1,.171-.29.805.805,0,0,1,.544-.32.833.833,0,0,1,.61.16c.1.06.183.13.274.19.759.54,1.435,1.08,2.172,1.58a1.283,1.283,0,0,0,.56.25,1.254,1.254,0,0,0,.607-.06,1.385,1.385,0,0,0,.5-.35,1.251,1.251,0,0,0-.354-1.89l-6.578-4.55Zm17.1-1.88h-9.229a3.819,3.819,0,0,1-1.519-.38c-1.694-.76-3.349-1.67-5.02-2.5a2.876,2.876,0,0,0-3.624.63q-1.518,1.575-3.038,3.17c-.592.62-1.208,1.24-1.777,1.89a1.2,1.2,0,0,0-.307.56,1.245,1.245,0,0,0,.341,1.19,1.3,1.3,0,0,0,1.872-.09c1.269-1.19,2.552-2.38,3.8-3.56a1.738,1.738,0,0,1,2.605-.18q5.317,3.735,10.7,7.47a.782.782,0,0,0,.434.19.762.762,0,0,0,.469-.08,11.839,11.839,0,0,1,2.013-.61c.76-.16,1.519-.24,2.279-.35Zm-20.463-16.67v12.18a3.052,3.052,0,0,0,.1.59l.539-.22c.555-.24,1.1-.5,1.671-.7a4.848,4.848,0,0,1,.927-.14v-11.71A5.259,5.259,0,0,1,945.361,2411.96Zm-18.821,5.23v2.46a1.573,1.573,0,0,0,.114.61,1.591,1.591,0,0,0,.341.51,1.548,1.548,0,0,0,.516.34,1.591,1.591,0,0,0,.608.12h6.624a1.578,1.578,0,0,0,1.587-1.44c.053-.86,0-1.72,0-2.6Zm40.932,0h-9.806v2.53a1.578,1.578,0,0,0,1.519,1.51h6.76a1.449,1.449,0,0,0,1.024-.39,1.511,1.511,0,0,0,.5-.97C967.51,2418.98,967.472,2418.1,967.472,2417.19Zm-20.508-6.63a3.386,3.386,0,0,0,1.257-.24,3.1,3.1,0,0,0,1.071-.69,3.272,3.272,0,0,0,.976-2.31,3.291,3.291,0,0,0-.9-2.42,3.276,3.276,0,0,0-4.74,0,3.3,3.3,0,0,0-.9,2.42,3.289,3.289,0,0,0,.958,2.3,3.231,3.231,0,0,0,1.056.7,3.317,3.317,0,0,0,1.245.24Zm-11.393,4.89-4.155-6.61-4.17,6.6Zm27.01-6.61-4.163,6.58h8.355Zm7.352,28.78v-10.64h-2.385v10.64Zm-45.87-9.79v10.63h2.393v-10.63Zm15.192,18.23c.311-.19.759-.31.911-.59.76-1.13,1.451-2.28,2.119-3.48a1.187,1.187,0,0,0,.089-.88,1.165,1.165,0,0,0-.545-.7,1.179,1.179,0,0,0-.879-.14,1.194,1.194,0,0,0-.731.51c-.721,1.13-1.428,2.28-2.073,3.45a1.273,1.273,0,0,0-.116.62,1.333,1.333,0,0,0,.19.6,1.225,1.225,0,0,0,.452.43,1.294,1.294,0,0,0,.6.18Zm-3.5-2.14c.3-.18.714-.29.889-.55.623-.91,1.192-1.86,1.724-2.82a1.2,1.2,0,0,0-1.294-1.67,1.182,1.182,0,0,0-.7.44,32.15,32.15,0,0,0-1.732,2.87,1.291,1.291,0,0,0-.073.59,1.332,1.332,0,0,0,.2.57,1.382,1.382,0,0,0,.436.41,1.276,1.276,0,0,0,.574.16Zm7.056,4.25c.3-.18.692-.31.874-.57.607-.9,1.162-1.84,1.686-2.78a1.2,1.2,0,0,0,.069-.86,1.2,1.2,0,0,0-2.112-.38,32.427,32.427,0,0,0-1.679,2.79,1.244,1.244,0,0,0-.108.62,1.258,1.258,0,0,0,.206.6,1.278,1.278,0,0,0,.47.43,1.322,1.322,0,0,0,.617.15Zm2.993,1.79c.106-.07.38-.16.5-.35.57-.88,1.117-1.78,1.633-2.69a.786.786,0,0,0,.062-.57.764.764,0,0,0-.343-.44.72.72,0,0,0-.273-.13.763.763,0,0,0-.3-.01.723.723,0,0,0-.28.11.649.649,0,0,0-.217.21c-.569.9-1.131,1.81-1.648,2.75-.251.51.175,1.11.889,1.12Z" transform="translate(-922.396 -2402.39)" fill="#a29632"/>
</svg>
