<svg xmlns="http://www.w3.org/2000/svg" width="48.028" height="47.999" viewBox="0 0 48.028 47.999">
  <g id="imagecontent-3" transform="translate(2341.014 -1249)">
    <path id="Path_91" data-name="Path 91" d="M929.087,2637h27.174a2.676,2.676,0,0,1,1.955,2.96v19.84c.207-.2.326-.31.43-.42,1.9-1.89,3.792-3.81,5.7-5.69a3.209,3.209,0,0,1,4.444-.19,6.54,6.54,0,0,1,2.222,2.89v1.21a5.3,5.3,0,0,1-1.629,2.36c-3.615,3.61-7.207,7.21-10.836,10.8a1.187,1.187,0,0,0-.377.95v10.48a2.605,2.605,0,0,1-.153,1.1,2.591,2.591,0,0,1-2.617,1.7c-9.947-.04-19.886,0-29.833,0a2.412,2.412,0,0,1-1.031-.14,2.5,2.5,0,0,1-.873-.57,2.412,2.412,0,0,1-.547-.89,2.365,2.365,0,0,1-.119-1.03v-38.74a1.254,1.254,0,0,1,.267-.81C925.221,2640.86,927.147,2638.93,929.087,2637Zm27.448,35.81c-1.615,1.62-3.133,3.17-4.7,4.67a4.325,4.325,0,0,1-1.355.88c-1.252.51-2.533.95-3.792,1.44a5.625,5.625,0,0,1-2.222.39H928.917a1.823,1.823,0,0,1-.467,0,.8.8,0,0,1-.7-.81.789.789,0,0,1,.741-.74h14.938c.111-.44.178-.81.3-1.16.511-1.4,1.014-2.81,1.585-4.19a4.4,4.4,0,0,1,.9-1.48q4.988-5.04,10.028-10.04a1.04,1.04,0,0,0,.238-.34,1,1,0,0,0,.08-.4v-21.27c0-.92-.229-1.15-1.17-1.15H930.213v2.89a2.46,2.46,0,0,1-.125,1.09,2.424,2.424,0,0,1-.585.92,2.462,2.462,0,0,1-.928.58,2.509,2.509,0,0,1-1.087.12H924.6v38.07c0,.82.274,1.1,1.1,1.1h29.8c.807,0,1.066-.26,1.066-1.06v-8.99C956.557,2673.19,956.55,2673.06,956.535,2672.81Zm4.444-13.43-13.443,13.45.993,1.07,13.5-13.51Zm2.31,2.26-13.479,13.47.963,1.02,13.509-13.5Zm4.518-2.38c.4-.4.793-.78,1.148-1.19a1.537,1.537,0,0,0,.408-1.04,1.561,1.561,0,0,0-.408-1.05,16.3,16.3,0,0,0-1.259-1.26,1.545,1.545,0,0,0-1.021-.41,1.521,1.521,0,0,0-1.038.37c-.429.37-.815.81-1.2,1.19Zm-18.6,17.86-2.651-2.64c-.445,1.2-.919,2.46-1.385,3.7v.27a.54.54,0,0,0,.355,0C946.8,2678.03,948.04,2677.56,949.21,2677.12Zm13.042-18.97,3.252,3.25,1-.95-3.244-3.3Zm-36.357-15.6h2.1a.878.878,0,0,0,.315-.16.773.773,0,0,0,.2-.29c.051-.75,0-1.49,0-2.17Z" transform="translate(-3264 -1388)" fill="#a29632"/>
    <path id="Path_92" data-name="Path 92" d="M942.766,2657.37c-1.162,1.2-2.429,1.69-3.925.56l-3.392,2.77c-1.259,1.02-2.511,2.06-3.8,3.04a2.193,2.193,0,0,1-2.592.17,2.245,2.245,0,0,1-.966-.92,2.283,2.283,0,0,1-.294-1.3,2.488,2.488,0,0,1,1.03-1.91c2.153-1.73,4.3-3.45,6.451-5.18l.481-.4a2.235,2.235,0,0,1-.274-2.28,14.733,14.733,0,0,1,1.481-1.86c-.133-.2-.3-.51-.74-.4h-.089a3.124,3.124,0,0,1-2.155-2.87,1.817,1.817,0,0,1,.57-.98c2.133-1.75,4.3-3.48,6.458-5.18a1.6,1.6,0,0,1,1.166-.35,1.551,1.551,0,0,1,.59.2,1.453,1.453,0,0,1,.466.41c.267.31.5.64.741.95a1.84,1.84,0,0,1,.315.67,1.81,1.81,0,0,1,.018.74.876.876,0,0,0,.17.49c1.97,2.52,3.963,5.03,5.925,7.54a.815.815,0,0,0,.3.27.872.872,0,0,0,.387.11,3.035,3.035,0,0,1,2.222,2.9,1.806,1.806,0,0,1-.593.96q-3.14,2.58-6.34,5.11a1.54,1.54,0,0,1-.593.35,1.771,1.771,0,0,1-.687.07,1.672,1.672,0,0,1-.651-.23,1.63,1.63,0,0,1-.491-.49c-.214-.27-.414-.54-.636-.81a1.7,1.7,0,0,1-.34-.73,1.789,1.789,0,0,1,.021-.81,2.256,2.256,0,0,0-.059-.57Zm-4.754-8.66,6.251,7.89,5.095-4.09c-2.089-2.65-4.155-5.27-6.243-7.9Zm-1.23,6.66-6.9,5.6c-.5.4-.608.89-.3,1.29s.785.42,1.311,0l4.74-3.78,2.222-1.76Zm5.014.69-3.7-4.7c-.311.25-.585.45-.844.68a.975.975,0,0,0-.224.24.819.819,0,0,0-.1.63.73.73,0,0,0,.143.29c.918,1.17,1.844,2.32,2.792,3.46a.736.736,0,0,0,.226.2.756.756,0,0,0,.291.1.787.787,0,0,0,.3-.03.707.707,0,0,0,.267-.15,7.445,7.445,0,0,0,.844-.69Zm3.533,3.35,6.443-5.18-.785-.94-6.443,5.19Zm-9-11.43,6.451-5.19-.785-.97L935.59,2647Z" transform="translate(-3264 -1388)" fill="#a29632"/>
    <path id="Path_93" data-name="Path 93" d="M937.849,2666.58h9.184a.857.857,0,0,1,.525.25.781.781,0,0,1,0,1.08.814.814,0,0,1-.522.26,2.3,2.3,0,0,1-.371,0H928.717a.948.948,0,0,1-.336-.03.854.854,0,0,1-.3-.17.794.794,0,0,1-.207-.26.868.868,0,0,1-.087-.33.813.813,0,0,1,.926-.81h9.132Z" transform="translate(-3264 -1388)" fill="#a29632"/>
    <path id="Path_94" data-name="Path 94" d="M935.819,2670.56h6.829a2.064,2.064,0,0,1,.555.05.757.757,0,0,1,.427.28.8.8,0,0,1,0,.97.757.757,0,0,1-.427.28,2.586,2.586,0,0,1-.555.05H928.769c-.615,0-.985-.34-.978-.84s.393-.78,1.007-.78Z" transform="translate(-3264 -1388)" fill="#a29632"/>
    <path id="Path_95" data-name="Path 95" d="M934.62,2674.57h5.851c.622,0,.977.36.9.92a.757.757,0,0,1-.2.44.713.713,0,0,1-.428.22,3.635,3.635,0,0,1-.467,0H928.924a2.37,2.37,0,0,1-.377,0,.785.785,0,0,1-.511-.26.787.787,0,0,1,0-1.06.785.785,0,0,1,.511-.26h6.073Z" transform="translate(-3264 -1388)" fill="#a29632"/>
  </g>
</svg>
