<svg xmlns="http://www.w3.org/2000/svg" width="70" height="70.032" viewBox="0 0 70 70.032">
  <g id="imageblog-5" transform="translate(-5059.5 63.516)">
    <path id="Path_285" data-name="Path 285" d="M115,645.73a13.483,13.483,0,0,1-2.514,4.714,1.445,1.445,0,0,1-1.056.55,1.342,1.342,0,0,1-.841-.752,1.276,1.276,0,0,1,.2-.932c.426-.729.909-1.425,1.38-2.121a4.605,4.605,0,0,0,.786-2.638V618.846c0-1.022-.348-1.347-1.369-1.291a4.492,4.492,0,0,0-4.109,4.49v18.723a6.207,6.207,0,0,1-1.74,4.49c-3.367,3.66-6.735,7.364-10.181,11.057-.18.2-.37.415-.561.595a1.043,1.043,0,0,1-1.47,0,1.022,1.022,0,0,1,0-1.426c.831-.932,1.684-1.852,2.526-2.772,2.8-3.042,5.613-6.073,8.385-9.1a3.1,3.1,0,0,0,.943-2.593,2.9,2.9,0,0,0-4.681-1.908,8.156,8.156,0,0,0-.8.741L88.992,650.68a5.234,5.234,0,0,1-.449.426,1.022,1.022,0,0,1-1.471,0,1,1,0,0,1,0-1.47c.64-.674,1.313-1.313,1.976-1.976l.427-.449c-1.392-.819-1.56-2.121-1.538-3.558V633.326a5.3,5.3,0,0,1,3.087-5.1c.472-.236.37-.584.326-.909a4.491,4.491,0,0,0-3.491-3.851c-1.246-.269-2.5-.482-3.76-.684a.864.864,0,0,0-.333.061.875.875,0,0,0-.284.186,4.355,4.355,0,0,1-6.926,0,.9.9,0,0,0-.7-.225c-1.122.18-2.324.4-3.48.629a4.567,4.567,0,0,0-3.693,3.816.876.876,0,0,0,.505,1.123,5.072,5.072,0,0,1,2.851,4.669v11.562a3.085,3.085,0,0,1-1.459,2.649c1.426,1.459,2.84,2.874,4.243,4.322l4.12,4.288V645.8a1.123,1.123,0,0,1,1.033-1.123,1.079,1.079,0,0,1,1.066,1.123v10.136c.853-.954,1.616-1.841,2.413-2.694.584-.617,1.2-.662,1.661-.168s.4,1.044-.2,1.605a11.909,11.909,0,0,0-3.76,7.173,11.572,11.572,0,0,0,.932,6.533,14.735,14.735,0,0,1,1.381,4.961,1.594,1.594,0,0,1-.606,1.616h-.819a1.773,1.773,0,0,1-.674-1.47,4.319,4.319,0,0,0-.135-1.156c-.337-1.123-.707-2.245-1.122-3.368l-.225.056a10.813,10.813,0,0,0-1.313,4.49,1.8,1.8,0,0,1-.674,1.471h-.819c-.977-.662-.651-1.65-.483-2.492a18.511,18.511,0,0,1,1.123-3.7A12,12,0,0,0,75.129,654.8L59.8,639.556a2.929,2.929,0,0,0-3.233-.842,2.874,2.874,0,0,0-1.122,4.692c1.706,1.987,3.5,3.861,5.276,5.792l5.5,5.994a3.2,3.2,0,0,1,.314.359,1.056,1.056,0,0,1,0,1.426,1.031,1.031,0,0,1-1.47,0c-.808-.842-1.594-1.7-2.38-2.559-2.851-3.1-5.691-6.219-8.554-9.306a5.611,5.611,0,0,1-1.549-3.951V622.225a4.447,4.447,0,0,0-4.265-4.569c-.853,0-1.212.3-1.212,1.122v5.871c0,.808-.359,1.28-.988,1.3S45,625.424,45,624.593v-6.084a2.976,2.976,0,0,1,3.222-3.042,6.521,6.521,0,0,1,6.365,6.353c.079,1.752,0,3.5,0,5.265v.819l3.289-.606a.428.428,0,0,0,.236-.112,2.246,2.246,0,0,0-.079-2.021,6.609,6.609,0,0,1-1.807-4.175,6.881,6.881,0,0,1,.236-3.233,5.3,5.3,0,0,1,10.282,1.818,7.44,7.44,0,0,1-2.121,5.781.707.707,0,0,0-.123.539,7.365,7.365,0,0,0,.236,1.313l1.774.337c.112-.527.18-1.033.326-1.493a6.736,6.736,0,0,1,5.736-4.793c1.01-.168,2.021-.348,3.02-.561a.694.694,0,0,0,.426-.46,2.077,2.077,0,0,0-.539-2.189c-2.189-2.178-2.795-7.745-.92-10.215a6.5,6.5,0,0,1,6.219-2.795,6.365,6.365,0,0,1,5.354,4.108,1.124,1.124,0,0,1-.483,1.561c-.584.247-1.122,0-1.426-.764a4.505,4.505,0,1,0-8.666,2.47,20.372,20.372,0,0,0,.348,2.245,5.7,5.7,0,0,0,2.907,3.547,2.415,2.415,0,0,0,2.413,0,5.916,5.916,0,0,0,2.885-3.48,1.242,1.242,0,0,1,.123-.393.994.994,0,0,1,.164-.373.99.99,0,0,1,.687-.4.994.994,0,0,1,.406.036,1.033,1.033,0,0,1,.378.188,1.02,1.02,0,0,1,.329,1.148,7.855,7.855,0,0,1-2,3.525,2.628,2.628,0,0,0-.123,2.077.73.73,0,0,0,.415.157l3.491.662A6.534,6.534,0,0,1,93.4,627.22a1.371,1.371,0,0,0,.09.291l1.785-.314a8.143,8.143,0,0,1,.2-1.066.967.967,0,0,0-.314-1.067,7.205,7.205,0,0,1-1.47-7.509,5.163,5.163,0,0,1,6.174-3.132,5.412,5.412,0,0,1,3.985,5.77,7.58,7.58,0,0,1-2.1,5.107c-.472.46,0,1.863.684,1.987l2.952.55v-3.21a25.636,25.636,0,0,1,.2-4.154,6.455,6.455,0,0,1,6.387-5.051,2.922,2.922,0,0,1,2.762,1.785c.067.157.168.3.247.449Zm-9.642-8.4v-6.51a.806.806,0,0,0-.013-.349.8.8,0,0,0-.158-.311.812.812,0,0,0-.275-.215.8.8,0,0,0-.34-.079c-.775-.146-1.572-.247-2.335-.449a1.121,1.121,0,0,0-1.246.37,3.289,3.289,0,0,1-4.49.371,2.512,2.512,0,0,0-2.66-.573q-.337.078-.674.135a3.367,3.367,0,0,0-3.2,3.76v10.653a1.45,1.45,0,0,0,.067.741,1.246,1.246,0,0,0,.707.594,1.119,1.119,0,0,0,.808-.449,1.3,1.3,0,0,0,.135-.774v-8.61c0-.853.382-1.313,1.044-1.3s1,.46,1,1.28v7.3c.236-.224.4-.359.561-.516q2.245-2.246,4.49-4.423a5.075,5.075,0,0,1,6.477-.64Zm-39.411,5.613.258-.18V635.6c0-.842.382-1.3,1.055-1.291s.988.471.988,1.291v9.081a.8.8,0,0,0,.531.753.821.821,0,0,0,.322.044.784.784,0,0,0,.323-.04.793.793,0,0,0,.278-.169.774.774,0,0,0,.242-.588V632.664a3.067,3.067,0,0,0-2.492-2.807c-.887-.19-1.785-.359-2.683-.493a.842.842,0,0,0-.617.247,3.605,3.605,0,0,1-5.388,0c-.135-.146-.382-.315-.55-.281-1.01.157-2.009.359-3.008.561-.449.09-.606.348-.595.82v6.016a2.391,2.391,0,0,0,0,.4,17.407,17.407,0,0,1,2.57-.673,4.683,4.683,0,0,1,3.884,1.481q2.481,2.516,4.883,5.029Zm-7.712-23.079-.191.056a12.5,12.5,0,0,0,1,3.02c1.5,2.312,3.289,2.357,4.816,0a7.475,7.475,0,0,0,.774-2.773,3.233,3.233,0,1,0-6.4-.3Zm43.531.281a3.255,3.255,0,0,0-2.952-3.749,3.166,3.166,0,0,0-3.435,2.795,9.445,9.445,0,0,0,.191,2.436,3.971,3.971,0,0,0,1.673,2.559,1.91,1.91,0,0,0,2.615,0,4.731,4.731,0,0,0,1.909-4.041Zm-19.925.067a4.706,4.706,0,0,1-3.682,0c-.213.82-.3,1.561.55,2.077a2.326,2.326,0,0,0,2.514,0A1.557,1.557,0,0,0,81.841,620.215ZM62.5,626.748H60.357c0,.606-.539,1.235.236,1.74a1.572,1.572,0,0,0,1.785-.056C63.028,627.916,62.557,627.321,62.5,626.748Zm37.143,0H97.489c0,.573-.516,1.179.168,1.684a1.548,1.548,0,0,0,1.785,0c.752-.472.2-1.089.2-1.673Z" transform="translate(5014.5 -668.5)" fill="#486767"/>
    <path id="Path_286" data-name="Path 286" d="M61.962,674.993a3.923,3.923,0,0,1-.629-1.212,13.181,13.181,0,0,0-2.133-5.613c-4.322-6.544-8.587-13.077-12.954-19.61A7.206,7.206,0,0,1,45,644.394v-14.5c0-.606.146-1.123.8-1.246s1.246.337,1.246,1.2v14.491a5.263,5.263,0,0,0,.932,3.087q6.432,9.7,12.83,19.42a15.355,15.355,0,0,1,2.571,6.611,1.471,1.471,0,0,1-.595,1.527Z" transform="translate(5014.5 -668.5)" fill="#486767"/>
    <path id="Path_287" data-name="Path 287" d="M97.231,674.993a1.5,1.5,0,0,1-.6-1.538A15.112,15.112,0,0,1,99,667.2l8.867-13.47.191-.28a1.033,1.033,0,0,1,1.729,1.122c-.135.236-.292.46-.449.685l-8.531,12.931a13.077,13.077,0,0,0-2.133,5.612,3.917,3.917,0,0,1-.629,1.213Z" transform="translate(5014.5 -668.5)" fill="#486767"/>
    <path id="Path_288" data-name="Path 288" d="M73.995,629.274a3.669,3.669,0,0,1,5.512-3.042.89.89,0,0,0,.977,0,3.715,3.715,0,0,1,4.49,5.78c-1.369,1.426-2.784,2.818-4.2,4.21a1.055,1.055,0,0,1-1.661,0c-1.381-1.37-2.75-2.728-4.108-4.108a3.626,3.626,0,0,1-1.01-2.84ZM80,634.089c1.19-1.179,2.357-2.245,3.48-3.457a1.584,1.584,0,0,0,0-2.324,1.641,1.641,0,0,0-2.335,0c-1.122.943-1.122.943-2.245,0a1.641,1.641,0,0,0-2.335,0,1.583,1.583,0,0,0,0,2.324C77.654,631.8,78.81,632.91,80,634.089Z" transform="translate(5014.5 -668.5)" fill="#486767"/>
  </g>
</svg>
