<svg xmlns="http://www.w3.org/2000/svg" width="70" height="70.268" viewBox="0 0 70 70.268">
  <g id="imageblog-3" transform="translate(-5059.5 343.634)">
    <path id="Path_273" data-name="Path 273" d="M80.829,324.866a6.419,6.419,0,0,1,3.362,1.961,5.48,5.48,0,0,1-.639,7.755,1.232,1.232,0,0,0-.516,1.121v2.947H105.1a5.132,5.132,0,0,1,1.49.18,2.756,2.756,0,0,1,1.894,3.115,2.847,2.847,0,0,1-2.779,2.4h-2.241c.123.291.19.493.291.694q4.674,10.323,9.358,20.622a.85.85,0,0,0,.773.616,1.289,1.289,0,0,1,.987,1.827,45.355,45.355,0,0,1-2.141,4.146,3.753,3.753,0,0,1-3.5,1.827H93.628a4.069,4.069,0,0,1-3.889-2.454c-.5-1.009-1.02-2.006-1.524-3-.628-1.244-.269-1.961,1.121-2.331.2,0,.392-.347.493-.56l6.993-15.365c.785-1.748,1.58-3.508,2.376-5.256.09-.2.168-.4.269-.65h-16.4v3.732a1.041,1.041,0,0,1-1.042,1.053,1.121,1.121,0,0,1-1.02-1.121V343.5a1.118,1.118,0,0,1,1.121-1.221h22.863a2.035,2.035,0,0,0,.874-.068c.235-.123.538-.459.516-.661a1.388,1.388,0,0,0-.572-.706c-.247-.157-.493,0-.751,0H82.645c-1.345,0-1.659-.314-1.659-1.659V336.1a.509.509,0,0,0-.067-.146H79.036v3.564a1.12,1.12,0,0,1-.3.888,1.122,1.122,0,0,1-.872.345,5.766,5.766,0,0,1-.616,0h-22.3a2.345,2.345,0,0,0-.74,0,1.2,1.2,0,0,0-.572.706,1.039,1.039,0,0,0,.515.661,2.088,2.088,0,0,0,.885.068H77.243a6.569,6.569,0,0,1,.818,0,1.007,1.007,0,0,1,.964.986v39.6H80.93V353.623a5.7,5.7,0,0,1,0-.762,1.043,1.043,0,0,1,1.121-.953.976.976,0,0,1,.975.964v29.9H90.12a3.452,3.452,0,0,1,3.766,3.754v1.345a12.265,12.265,0,0,1,1.95.1,3.262,3.262,0,0,1,2.992,3.138v2.746c0,.919-.381,1.266-1.311,1.277h-34.8c-1.278,0-1.547-.28-1.547-1.591V391.3a3.285,3.285,0,0,1,3.1-3.363h1.849v-1.6a3.362,3.362,0,0,1,3.6-3.385H76.9v-38.53H60.589c.112.258.191.493.291.717q4.662,10.233,9.3,20.487c.168.37.314.628.807.684a1.311,1.311,0,0,1,.975,1.894,41.43,41.43,0,0,1-2.085,4.023,3.822,3.822,0,0,1-3.519,1.849H50.749a4.1,4.1,0,0,1-3.9-2.454c-.516-1.054-1.054-2.085-1.569-3.127a1.4,1.4,0,0,1,1.121-2.241,1.133,1.133,0,0,0,.36-.255,1.109,1.109,0,0,0,.234-.373q4.169-9.146,8.316-18.3c.426-.953.863-1.9,1.334-2.948H54.268a2.79,2.79,0,0,1-2.746-2.465,2.735,2.735,0,0,1,1.894-3.049,5.136,5.136,0,0,1,1.491-.179H76.94V335.21a.719.719,0,0,0-.291-.426,5.6,5.6,0,0,1,2.365-9.818.915.915,0,0,0,.179-.089ZM68.176,366.231l-9.593-21.137-9.6,21.137Zm42.856,0-9.6-21.137c-3.239,7.139-6.4,14.121-9.593,21.137ZM91.767,388.085v-1.031c0-1.726-.269-1.995-1.995-1.995H70.788c-2.6,0-2.6.4-2.533,2.757a.449.449,0,0,0,.09.28h.717c.74,0,1.468,0,2.242.056a.921.921,0,0,1,.355.077.907.907,0,0,1,.542.876.964.964,0,0,1-.8,1.042,2.794,2.794,0,0,1-.684,0H64.691c-.628,0-1.188.2-1.323.852a17.2,17.2,0,0,0-.146,2.152H96.766v-1.267c0-1.311-.415-1.737-1.715-1.737h-18.5a3.294,3.294,0,0,1-.818,0,1.02,1.02,0,0,1-.528-1.684,1.026,1.026,0,0,1,.618-.322,6.983,6.983,0,0,1,.818,0h15.13ZM47.589,368.361c.5.963.919,1.815,1.39,2.644a1.733,1.733,0,0,0,1.591.919h16a2.113,2.113,0,0,0,1.491-.784,20.477,20.477,0,0,0,1.513-2.746Zm42.867,0c.46.9.852,1.725,1.289,2.521a1.838,1.838,0,0,0,1.67,1.031h16a2.02,2.02,0,0,0,1.412-.672,25.489,25.489,0,0,0,1.614-2.858ZM79.989,333.82a3.441,3.441,0,1,0-3.429-3.362,3.53,3.53,0,0,0,3.429,3.362Z" transform="translate(5014.5 -668.5)" fill="#486767"/>
  </g>
</svg>
