<svg xmlns="http://www.w3.org/2000/svg" width="70" height="70.062" viewBox="0 0 70 70.062">
  <g id="imageblog-4" transform="translate(-5059.5 203.531)">
    <path id="Path_274" data-name="Path 274" d="M47.754,532.786V507.945a6.735,6.735,0,0,1,.079-1.066.8.8,0,0,1,.763-.707,7.086,7.086,0,0,1,.976-.067H75.6c1.661,0,1.885.236,1.885,1.885v24.8h7.046c.381,0,.516-.112.5-.505v-2.748H80.449a3.531,3.531,0,0,1-.7-.057,1.02,1.02,0,0,1-.853-1.032.987.987,0,0,1,.819-1.032,2.548,2.548,0,0,1,.651-.079H85v-5.52H80.2a1.314,1.314,0,0,1-1.122-.516,1.054,1.054,0,0,1,.9-1.638H84.7c.135,0,.381-.157.381-.247v-5.273H80.337a2.485,2.485,0,0,1-.819-.146.966.966,0,0,1-.617-1.044.987.987,0,0,1,.707-.9,2.575,2.575,0,0,1,.785-.1h3.916c.662,0,.729-.068.729-.718v-4.758H80.214a1.761,1.761,0,0,1-.841-.224,1,1,0,0,1-.438-1.178,1.043,1.043,0,0,1,1.021-.752h4.488c.651,0,.651,0,.651-.662V498.79H80.113a1.06,1.06,0,0,1-1.212-1.122,1.123,1.123,0,0,1,1.245-1.055h4.869v-5.5H80.348a3.092,3.092,0,0,1-.561,0,1.121,1.121,0,0,1-.886-1.122,1.01,1.01,0,0,1,1.043-.976h4.488c.606,0,.606,0,.606-.6v-5.408H65.773V495.3a3.42,3.42,0,0,1-.135,1.01.9.9,0,0,1-1,.662,1.02,1.02,0,0,1-.987-.774,2.159,2.159,0,0,1-.067-.6v-13.61c0-1.2.325-1.526,1.526-1.537H78.89V466.779a3.556,3.556,0,0,1,.168-1.122,1,1,0,0,1,1.492-.527l18.67,9.9c1.268.673,2.525,1.369,3.8,2.008a2.043,2.043,0,0,1,1.234,2.042v17.346h6.732c.92.056,1.223.359,1.257,1.279v35.108h1.672a1.008,1.008,0,0,1,1.043.83,1.033,1.033,0,0,1-.864,1.3,7.517,7.517,0,0,1-1.122.078H93.3l-46.182.011a6.807,6.807,0,0,1-1.122-.078,1.055,1.055,0,0,1-.987-1,.965.965,0,0,1,.555-.977.976.976,0,0,1,.387-.089C46.5,532.786,47.092,532.842,47.754,532.786Zm33.379-52.33h2.592c.864,0,1.739,0,2.6.079.617.056.819.292.886.9v50.816c0,.493.146.594.606.583h4.51V497.847c.067-1.066.359-1.346,1.414-1.369h7.383c.83,0,.841,0,.841-.841V479.985a1.3,1.3,0,0,0-.774-1.3q-9.223-4.857-18.434-9.761c-.55-.292-1.122-.55-1.705-.841Zm28.813,25.907h-7.215a2.679,2.679,0,0,1-.729-.09.92.92,0,0,1-.8-1,.977.977,0,0,1,.842-1.021,4.4,4.4,0,0,1,.785-.067h7.1v-5.465h-15.3v34.064h15.3v-3.242h-2.872a13.927,13.927,0,0,1-1.672-.056.964.964,0,0,1-.7-.361.967.967,0,0,1-.2-.761c0-.651.482-.988,1.324-1h4.1v-5.52h-7.327c-.74,0-1.223-.281-1.346-.774-.191-.8.269-1.369,1.189-1.38h6.351c1.2,0,1.2,0,1.2-1.19v-4.342h-6.889a4.457,4.457,0,0,1-1.122-.1.921.921,0,0,1-.763-1.066.909.909,0,0,1,.808-.942,3.769,3.769,0,0,1,.786-.079h7.135ZM50.021,532.786H75.266V508.428H50.021Z" transform="translate(5014.5 -668.5)" fill="#486767"/>
    <path id="Path_275" data-name="Path 275" d="M64.663,502.492a1.121,1.121,0,1,1,.793-.328A1.123,1.123,0,0,1,64.663,502.492Z" transform="translate(5014.5 -668.5)" fill="#486767"/>
    <path id="Path_276" data-name="Path 276" d="M98.7,491.272v1.358a1.123,1.123,0,0,1-1.122,1.122,1.055,1.055,0,0,1-1.055-1.122v-2.7a1.021,1.021,0,0,1,1.044-1.122,1.055,1.055,0,0,1,1.122,1.122v1.391Z" transform="translate(5014.5 -668.5)" fill="#486767"/>
    <path id="Path_277" data-name="Path 277" d="M93.218,491.272v1.358a1.079,1.079,0,1,1-2.154-.079v-2.7a1.011,1.011,0,0,1,1.021-1.122,1.041,1.041,0,0,1,.425.053,1.023,1.023,0,0,1,.368.22,1.03,1.03,0,0,1,.329.771V491.2Z" transform="translate(5014.5 -668.5)" fill="#486767"/>
    <path id="Path_278" data-name="Path 278" d="M98.693,483v1.3a1.089,1.089,0,0,1-2.177.078v-2.7a1,1,0,0,1,.316-.731,1.01,1.01,0,0,1,.347-.212.985.985,0,0,1,.4-.055,1.021,1.021,0,0,1,1.122,1v1.347Z" transform="translate(5014.5 -668.5)" fill="#486767"/>
    <path id="Path_279" data-name="Path 279" d="M93.217,483v1.212a1.086,1.086,0,1,1-2.165,0v-2.468a1.021,1.021,0,0,1,.613-1.04,1.006,1.006,0,0,1,.419-.082,1.043,1.043,0,0,1,1.122,1.043v1.3Z" transform="translate(5014.5 -668.5)" fill="#486767"/>
    <path id="Path_280" data-name="Path 280" d="M99.287,529.5a1.122,1.122,0,1,1,.771-.305A1.12,1.12,0,0,1,99.287,529.5Z" transform="translate(5014.5 -668.5)" fill="#486767"/>
    <path id="Path_281" data-name="Path 281" d="M64.7,515.238V512.86c0-.786.348-1.19,1.122-1.2h4.948c.819,0,1.122.382,1.122,1.212v4.948a1.024,1.024,0,0,1-.293.829,1.03,1.03,0,0,1-.381.24,1.016,1.016,0,0,1-.448.053H65.841a1.122,1.122,0,0,1-1.122-1.2C64.685,516.888,64.7,516.057,64.7,515.238Zm2.244,1.4h2.715v-2.749H66.929Z" transform="translate(5014.5 -668.5)" fill="#486767"/>
    <path id="Path_282" data-name="Path 282" d="M64.7,525.841v-2.379c0-.785.382-1.178,1.122-1.178h4.948a1.01,1.01,0,0,1,1.122,1.122v5.083a.953.953,0,0,1-.277.786.957.957,0,0,1-.789.269H65.65c-.651,0-.976-.438-.987-1.122S64.7,526.683,64.7,525.841Zm2.244-1.3v2.737h2.715V524.54Z" transform="translate(5014.5 -668.5)" fill="#486767"/>
    <path id="Path_283" data-name="Path 283" d="M53.454,525.886v-2.379a1.084,1.084,0,0,1,1.2-1.234h4.9c.8,0,1.122.37,1.122,1.122v4.9c0,.8-.3,1.122-1.122,1.122H54.52c-.774,0-1.122-.4-1.122-1.178v-2.435Zm4.982,1.4v-2.761H55.754v2.761Z" transform="translate(5014.5 -668.5)" fill="#486767"/>
    <path id="Path_284" data-name="Path 284" d="M60.679,515.283v2.424a1.122,1.122,0,0,1-1.223,1.2H54.7a1.122,1.122,0,0,1-1.245-1.245v-4.8c0-.775.314-1.122,1.122-1.19H59.7c.729,0,1,.4,1.01,1.122s0,1.65,0,2.469Zm-2.244,1.358v-2.749H55.754v2.749Z" transform="translate(5014.5 -668.5)" fill="#486767"/>
  </g>
</svg>
