<svg xmlns="http://www.w3.org/2000/svg" width="70" height="70.206" viewBox="0 0 70 70.206">
  <g id="imageblog-1" transform="translate(-5059.5 623.603)">
    <path id="Path_249" data-name="Path 249" d="M88.283,44.9a7.478,7.478,0,0,1,2.692,2.072,1.014,1.014,0,0,1,.056,1.509.969.969,0,0,1-1.509,0c-.349-.327-.676-.687-1.025-1.014a1.34,1.34,0,0,0-2.016,0,1.363,1.363,0,0,0,0,2l.248.248L98.06,61.049a1.43,1.43,0,0,0,1.7.484,1.4,1.4,0,0,0,.417-2.4c-2.106-2.129-4.235-4.246-6.353-6.364-.146-.146-.293-.282-.428-.439a.98.98,0,0,1-.079-1.509,1.025,1.025,0,0,1,1.566.068c2.309,2.253,4.641,4.607,6.927,6.938a3.132,3.132,0,0,1,.4,4.179A3.651,3.651,0,0,1,98,63.5a9.849,9.849,0,0,1-1.374-.822l-2.073,2.073a4.765,4.765,0,0,1,1.385,3.616,4.921,4.921,0,0,1-.383,1.712.834.834,0,0,0,.248,1.126q6.578,6.544,13.1,13.088c1.272,1.273,2.545,2.568,3.84,3.818A8.082,8.082,0,0,1,115,91.28V92.79c-.09.237-.18.462-.259.7a4.426,4.426,0,0,1-7.456,1.723c-5.835-5.925-11.76-11.77-17.628-17.673a1.036,1.036,0,0,0-1.329-.3,4.663,4.663,0,0,1-4.663-.6c-.2-.146-.394-.3-.552-.439l-2.1,2.1c1.487,2.016,1.385,3.818-.327,5.271a3.176,3.176,0,0,1-4.506-.18c-2.962-2.917-5.891-5.868-8.831-8.808L64.6,71.806c-1.622-1.622-1.746-3.447-.338-4.956a3.458,3.458,0,0,1,5.091-.169L84.994,51.035v-.056c-2.129-2.14-.552-5.271,1.7-5.9a.945.945,0,0,0,.236-.124Zm6.758,16.231-8.38-8.369L71.106,68.246l8.38,8.391c5.159-5.17,10.363-10.374,15.5-15.51Zm-4.258,14.5a2.583,2.583,0,0,0,.191.225l17.83,17.864a3.974,3.974,0,0,0,.462.405,2.254,2.254,0,0,0,3.616-1.453,2.445,2.445,0,0,0-.845-2.332L94.354,72.673c-.124-.124-.259-.236-.36-.327ZM80.105,80.636A4.89,4.89,0,0,0,79.5,79.7Q73.764,73.934,68.02,68.213c-.09-.079-.169-.169-.259-.237A1.421,1.421,0,0,0,65.9,70.127q5.846,5.88,11.726,11.725a1.533,1.533,0,0,0,.383.282,1.453,1.453,0,0,0,2.039-1.5ZM93.115,66.309l-8.369,8.369a2.568,2.568,0,0,0,3.593.225c1.723-1.6,3.379-3.278,4.99-4.99a2.613,2.613,0,0,0-.27-3.6Z" transform="translate(5014.5 -668.5)" fill="#486767"/>
    <path id="Path_250" data-name="Path 250" d="M49.051,107.6a12.118,12.118,0,0,1,0-2.546,3.628,3.628,0,0,1,3.627-2.94H78.292a3.762,3.762,0,0,1,3.672,5.114,1.475,1.475,0,0,0-.068.281,11.435,11.435,0,0,1,1.554.181,3.762,3.762,0,0,1-.9,7.411H48.567a3.773,3.773,0,0,1,0-7.535Zm16.456,5.485H82.031c1.431,0,2.253-.631,2.253-1.723s-.833-1.712-2.253-1.712h-21a1.88,1.88,0,0,1-.755,0,1.6,1.6,0,0,1-.8-.62c-.372-.766.169-1.408,1.126-1.408H78.179a1.735,1.735,0,0,0,.734-.054,1.754,1.754,0,0,0,.645-.354,1.734,1.734,0,0,0-1.38-3.027H52.836a1.734,1.734,0,0,0-1.729,1.045,1.738,1.738,0,0,0,1.741,2.379h1.994a1.418,1.418,0,0,1,.9.473,1,1,0,0,1-.912,1.554h-6.1a1.7,1.7,0,0,0-1.678,2.444,1.836,1.836,0,0,0,1.87,1Z" transform="translate(5014.5 -668.5)" fill="#486767"/>
    <path id="Path_251" data-name="Path 251" d="M59.718,96.834a1.107,1.107,0,0,1-1.554,1.126c-2.039-1.329-4.055-2.7-6.06-4.089a.912.912,0,0,1-.214-1.385.924.924,0,0,1,1.363-.315c2.016,1.34,4.01,2.692,6,4.066A2.13,2.13,0,0,1,59.718,96.834Z" transform="translate(5014.5 -668.5)" fill="#486767"/>
    <path id="Path_252" data-name="Path 252" d="M79.913,93.037a4.8,4.8,0,0,1-.71.89c-1.915,1.329-3.852,2.624-5.789,3.92a1.036,1.036,0,1,1-1.126-1.735c1.9-1.3,3.8-2.6,5.733-3.852a1.385,1.385,0,0,1,1.126-.124C79.44,92.249,79.621,92.677,79.913,93.037Z" transform="translate(5014.5 -668.5)" fill="#486767"/>
    <path id="Path_253" data-name="Path 253" d="M66.735,89.208v3.278a1.025,1.025,0,1,1-2.05,0V85.829A1.014,1.014,0,0,1,65.721,84.7a1,1,0,0,1,1.014,1.126C66.746,86.955,66.735,88.082,66.735,89.208Z" transform="translate(5014.5 -668.5)" fill="#486767"/>
  </g>
</svg>
