<svg xmlns="http://www.w3.org/2000/svg" width="70" height="69.918" viewBox="0 0 70 69.918">
  <g id="imageblog-6" transform="translate(-5059.5 -76.541)">
    <path id="Path_289" data-name="Path 289" d="M69.416,813.3V803.3c-.706.056-1.378.168-2.062.168H51.767a5.971,5.971,0,0,1-5.042-2.241,7.3,7.3,0,0,1-1.7-4.314c0-.673.291-1,1-1.009s1.278,0,1.916,0a1.242,1.242,0,0,0,1.266-.728q3.7-6.869,7.418-13.749a.976.976,0,0,0-.1-1.278,3.944,3.944,0,0,1,1.714-6.185c.28-.112.471-.2.471-.572V757.328a2.677,2.677,0,0,0,0-.347H56.182c-.078,0-.179.179-.224.291s-.09.381-.146.572c-.112.414-.336.706-.818.672a.75.75,0,0,1-.74-.7c-.078-.291-.146-.582-.213-.9H49.066a2.3,2.3,0,0,1-2.342-1.322,2.869,2.869,0,0,1,.269-2.981,1.962,1.962,0,0,1,1.647-.818h4.852c.527,0,.695-.179.65-.661a2.878,2.878,0,0,1,0-.538c.067-.616.28-.8.885-.8s.751.146.829.785c0,.358.067.706.1,1.12h2.734c.067-.448.157-.918.213-1.389s.325-.538.717-.516.751.1.8.594.078.841.123,1.311h7.272a11.1,11.1,0,0,1,.078-1.624,3.45,3.45,0,0,1,5.042-2.454c.415.212.594.134.852-.213a3.43,3.43,0,0,1,4.4-1.054.829.829,0,0,0,.93-.056c.459-.291.952-.538,1.412-.84a2.24,2.24,0,0,1,2.645,0,14.449,14.449,0,0,0,1.715.975.861.861,0,0,0,.661,0,3.416,3.416,0,0,1,4.213.762,3.507,3.507,0,0,1,.863,2.241v2.241h8.808c0-.437.078-.874.112-1.311s.437-.572.84-.583.728.123.773.605.079.841.123,1.3h2.746l.1-1.255c0-.459.313-.627.75-.65s.83.067.908.594.1.908.157,1.4h5.244a2.386,2.386,0,0,1,2.387,2.532,2.444,2.444,0,0,1-2.51,2.589H106a4.279,4.279,0,0,1-.258,1.008,1.17,1.17,0,0,1-.616.549.541.541,0,0,1-.242.035.554.554,0,0,1-.234-.071.579.579,0,0,1-.181-.164.56.56,0,0,1-.094-.225c-.235-1.121-.975-1.211-1.894-1.121a10.469,10.469,0,0,1-1.176,0v16.338a.537.537,0,0,0,.358.6,4,4,0,0,1,1.625,6.566l-.224.28,2.129,3.967q2.807,5.16,5.6,10.332a1.364,1.364,0,0,0,1.311.795h1.961c.65,0,.93.281.93.953a6.555,6.555,0,0,1-5.155,6.387,8.855,8.855,0,0,1-1.961.213H90.527v9.816h23.252c.762,0,1.12.247,1.12.818a.756.756,0,0,1-.177.6.761.761,0,0,1-.253.193.752.752,0,0,1-.309.073c-.471.056-.953.09-1.424.1H98.36l-51.871-.079a2.178,2.178,0,0,1-.975-.145,1.177,1.177,0,0,1-.493-.505.592.592,0,0,1,.236-.645.574.574,0,0,1,.224-.094,3.224,3.224,0,0,1,.93-.146H69.416Zm-8.908-56.218v16.36a.514.514,0,0,0,.4.56,4.5,4.5,0,0,1,1.121.65,3.945,3.945,0,0,1,.5,5.8.582.582,0,0,0-.112.739c2.163,3.967,4.3,7.945,6.454,11.912.09.168.325.246.482.37l.146-.112V781.577c0-1.389,0-1.389,1.4-1.557.325,0,.459-.157.448-.505a7.561,7.561,0,0,0-.784-3.361c-.56-1.121-1.21-2.163-1.748-3.283a10.257,10.257,0,0,1-1-4.8c0-.751.684-1.188,1.221-.774a1.4,1.4,0,0,1,.46.942,12.234,12.234,0,0,0,1.658,5.322,11.286,11.286,0,0,1,1.871,5.715c0,.527.123.684.672.684H86.034c.728,0,.717,0,.762-.74a8.964,8.964,0,0,1,1.927-5.513c.818-.986,1.748-1.86,2.6-2.813a11.013,11.013,0,0,0,3.025-5.1,34.33,34.33,0,0,0,.347-7.43,1.369,1.369,0,0,0-.571-.952,2.944,2.944,0,0,0-1.434-.426H83.927a3.363,3.363,0,0,0,3.194,3.452h2.757c.919,0,1.042.291,1.065,1.12v1.121c0,1.356-.067,1.412-1.423,1.546a6.971,6.971,0,0,0-6.208,5.177,17.438,17.438,0,0,0-.37,2.028c-.09.583-.347.852-.829.852s-.8-.292-.852-.9a2.031,2.031,0,0,1,0-.369,8.66,8.66,0,0,1,5.6-7.844l1.333-.561c-1.378-.437-2.7-.874-4.034-1.243a1.379,1.379,0,0,0-.919.089,3.463,3.463,0,0,1-3.967-.728c-.134-.146-.246-.336-.381-.516-2.3,1.547-4.09.852-5.6-1.053a3.72,3.72,0,0,1-3.821.247v1.12a12.6,12.6,0,0,1-.067,1.591.726.726,0,0,1-.5.663.737.737,0,0,1-.292.032.783.783,0,0,1-.8-.706,3.358,3.358,0,0,1,0-.583V757.6c0-.426-.09-.594-.56-.582H60.978Zm28.126,56.207V803.3a1.826,1.826,0,0,0-.661-1.479,6.376,6.376,0,0,1-2.241-4.875c0-.728.258-.986.986-1.008a11.828,11.828,0,0,1,1.277,0c.471,0,.616-.1.605-.583v-6.734H71.354a.275.275,0,0,0-.056.123v6.858c0,.112.224.3.347.313h1.49c.773,0,1.053.3,1.031,1.121a6.187,6.187,0,0,1-2.241,4.718,1.936,1.936,0,0,0-.728,1.613V813.3Zm24.361-15.632h-5.726a1.376,1.376,0,0,1-.728-.1,1.263,1.263,0,0,1-.538-.739.991.991,0,0,1,.121-.374.994.994,0,0,1,1-.5h1.95c-.123-.258-.19-.437-.28-.6-2.241-4.135-4.482-8.27-6.656-12.394a3.521,3.521,0,0,0-.684-.885,1.815,1.815,0,0,0-2.723.381l-6.723,12.394c-.191.347-.336.705-.538,1.12h9.547v1.7H87.6a4.478,4.478,0,0,0,.93,2.241,5.245,5.245,0,0,0,4.28,1.872h14.78a10.913,10.913,0,0,0,1.479-.1,4.649,4.649,0,0,0,3.922-4.045Zm-22.546-4.325c.437.213.549-.067.684-.325,2.062-3.832,4.124-7.665,6.219-11.486a1,1,0,0,0-.078-1.288,3.934,3.934,0,0,1,1.815-6.343.515.515,0,0,0,.359-.594V757.485a4.224,4.224,0,0,0,0-.493h-2.42c-.437,0-.583.1-.56.561.056,1.636.067,3.26.112,4.9a11.743,11.743,0,0,1-2.734,8.068c-1.121,1.278-2.174,2.522-3.283,3.765a7.309,7.309,0,0,0-1.95,4.382c-.1,1.176-.112,1.21,1.031,1.389a.819.819,0,0,1,.818.942v4.2c0,2.689-.011,5.378-.011,8.1Zm-39.533,2.476h17.4c-.1-.224-.168-.381-.247-.537L61.348,782.81a3.231,3.231,0,0,0-.616-.784,1.814,1.814,0,0,0-2.757.437L51.251,794.9A7.142,7.142,0,0,1,50.915,795.808Zm21.291,1.883H46.892a1.04,1.04,0,0,0,0,.19,4.85,4.85,0,0,0,4.986,3.866H67.1a11.347,11.347,0,0,0,1.221-.078,4.593,4.593,0,0,0,3.944-3.978Zm-.941-10.97H88.207c.37,0,.437-.157.426-.482v-4.191a1.876,1.876,0,0,0,0-.325H71.321Zm11.553-26.95c-.179-.526-.347-1.031-.5-1.535a2.241,2.241,0,0,1,.8-2.768,1.039,1.039,0,0,0,.3-.3,1.05,1.05,0,0,0,.156-.4v-6.376a1.6,1.6,0,0,0-1.075-1.449,1.618,1.618,0,0,0-.629-.086,1.748,1.748,0,0,0-1.793,1.927v9.245C80.072,759.659,81.226,760.444,82.817,759.771Zm-7.978-6.208v3.99a1.647,1.647,0,0,0,1.714,1.77,1.7,1.7,0,0,0,1.793-1.759v-8.08a1.657,1.657,0,0,0-1.121-1.624,1.692,1.692,0,0,0-2.4,1.512C74.805,750.762,74.839,752.163,74.839,753.563Zm-1.793,0v-2.812a1.759,1.759,0,1,0-3.507,0v5.468a1.759,1.759,0,0,0,3.519,0c-.022-.885-.022-1.77-.022-2.667ZM88.9,755.255v-5.972a1.7,1.7,0,0,0-1.67-1.558,1.6,1.6,0,0,0-1.782,1.39v5.793a.459.459,0,0,0,.336.336c1,.011,2.017,0,3.115,0Zm13.649,22.5a2.262,2.262,0,1,1,0-.011Zm-45.159,0a.541.541,0,1,0-.045-.045Zm42.032-24.148H90.65a7.848,7.848,0,0,1,0,1.031c0,.471.123.605.594.605h8.191Zm-31.7,0H60.518v1.614h7.205Zm-13.637,0H48.775a.764.764,0,0,0-.321.083.752.752,0,0,0-.385.847c0,.5.37.762,1.02.762h5Zm51.8,1.681h5.076a.842.842,0,0,0-.09-1.681H105.89Zm-49.955,0a18.615,18.615,0,0,0,2.5,0c.571-.078.213-.672.269-1.02s.179-.594-.269-.6h-2.5Zm45.338-1.658v1.6H104v-1.6Z" transform="translate(5014.5 -668.5)" fill="#486767"/>
  </g>
</svg>
