<svg xmlns="http://www.w3.org/2000/svg" width="95" height="22" viewBox="0 0 95 22">
  <path id="right" d="M855.376,3365.43l9.239,9.57a1.237,1.237,0,0,1,.3.47,1.57,1.57,0,0,1,.087.54,1.636,1.636,0,0,1-.088.54,1.247,1.247,0,0,1-.3.47l-9.239,9.56a1.325,1.325,0,0,1-.963.42,1.286,1.286,0,0,1-1-.42,1.423,1.423,0,0,1-.035-2.02l6.859-7.1H771.4a1.328,1.328,0,0,1-1-.42,1.521,1.521,0,0,1,0-2.06,1.324,1.324,0,0,1,1-.42h88.84l-6.859-7.1a1.444,1.444,0,0,1-.4-1.01,1.3,1.3,0,0,1,.4-1.02,1.246,1.246,0,0,1,.98-.43A1.355,1.355,0,0,1,855.376,3365.43Z" transform="translate(-770 -3365)" fill="#d9d9d9"/>
</svg>
