<svg xmlns="http://www.w3.org/2000/svg" xmlns:xlink="http://www.w3.org/1999/xlink" width="1340" height="404" viewBox="0 0 1340 404">
  <defs>
    <clipPath id="clip-path">
      <rect id="Rectangle_11" data-name="Rectangle 11" width="1340" height="404" transform="translate(100 4025)" fill="#fff"/>
    </clipPath>
  </defs>
  <g id="wallpaer-devise" transform="translate(-100 -4025)" clip-path="url(#clip-path)">
    <rect id="Rectangle_9" data-name="Rectangle 9" width="1340" height="404" transform="translate(100 4025)" fill="#48674b"/>
    <path id="Path_35" data-name="Path 35" d="M592.3,4177.15a3,3,0,0,1,.9,2.29l-4.364,93.44a2.994,2.994,0,0,1-.889,2l-317.537,313.6a2.982,2.982,0,0,1-2.108.87H181.082a2.984,2.984,0,0,1-2.109-.87L94.5,4504.97a3,3,0,0,1,0-4.27l43.654-43.18a3.009,3.009,0,0,1,4.24.02l82.1,82.79a3,3,0,0,0,4.244.01l130.6-129.71a3,3,0,0,0,.018-4.24L43.754,4087.58a3,3,0,0,0-4.255-.01L-88.884,4216.14a3.007,3.007,0,0,0-.015,4.23L97.05,4409.25a3,3,0,0,1,.058,4.15l-41.1,44.17a3,3,0,0,1-4.31.09l-195.741-194.35a3,3,0,0,1-.882-2.29l4.875-88.45a3.026,3.026,0,0,1,.885-1.97l318.139-314.73a2.985,2.985,0,0,1,2.11-.87h90.568a3,3,0,0,1,2.129.89l189.79,191.18a3,3,0,0,1,.006,4.22l-43.712,44.26a3,3,0,0,1-4.276-.01L229.836,3906.22a3.008,3.008,0,0,0-4.247-.04L94.477,4035.38a3,3,0,0,0-.034,4.24l314.489,319.91a3,3,0,0,0,4.267.01l127.788-128.55a3,3,0,0,0,0-4.23l-83.175-83.86a3,3,0,0,1,.081-4.3l46.362-43.36a3,3,0,0,1,4.144.05Z" fill="#415e43"/>
    <path id="Path_36" data-name="Path 36" d="M278.787,4047.82l-44.044,44.11a3,3,0,0,0,0,4.24l44.044,44.11a2.981,2.981,0,0,0,4.24,0l44.044-44.11a3,3,0,0,0,0-4.24l-44.044-44.11A2.981,2.981,0,0,0,278.787,4047.82Z" fill="#415e43"/>
    <path id="Path_37" data-name="Path 37" d="M98.248,4228.56,54.2,4272.67a3.01,3.01,0,0,0,0,4.25l44.045,44.11a3,3,0,0,0,4.239,0l44.045-44.11a3.01,3.01,0,0,0,0-4.25l-44.045-44.11A3,3,0,0,0,98.248,4228.56Z" fill="#415e43"/>
    <g id="Group_4" data-name="Group 4">
      <path id="Path_40" data-name="Path 40" d="M1222.73,4202.96a3.014,3.014,0,0,1,.9,2.29l-1.74,37.26a2.956,2.956,0,0,1-.89,1.99l-130.6,128.98a2.982,2.982,0,0,1-2.11.87h-34.7a2.982,2.982,0,0,1-2.11-.87l-33.24-32.85a3.018,3.018,0,0,1,0-4.27l15.59-15.41a2.978,2.978,0,0,1,4.23.02l31.56,31.81a2.99,2.99,0,0,0,4.24.02l51.64-51.28a3.009,3.009,0,0,0,.02-4.24L997.192,4167.65a2.991,2.991,0,0,0-4.255-.01l-50.729,50.8a3.007,3.007,0,0,0-.015,4.23l74.667,75.84a3.013,3.013,0,0,1,.06,4.15l-14.66,15.75a2.993,2.993,0,0,1-4.307.08l-79.277-78.71a2.994,2.994,0,0,1-.882-2.29l1.94-35.2a2.98,2.98,0,0,1,.885-1.96l130.861-129.46a2.982,2.982,0,0,1,2.11-.87h36.08a3.006,3.006,0,0,1,2.13.89l76.92,77.48a3,3,0,0,1,0,4.22l-15.64,15.83a2.991,2.991,0,0,1-4.27,0l-74.51-75.94a2.991,2.991,0,0,0-4.24-.03l-51.84,51.08a3,3,0,0,0-.03,4.24l127.86,130.06a3.009,3.009,0,0,0,4.27.02l50.48-50.78a3.006,3.006,0,0,0,0-4.23l-31.97-32.24a3,3,0,0,1,.08-4.3l16.67-15.59a3,3,0,0,1,4.14.05Z" fill="#3b5d3e"/>
      <path id="Path_41" data-name="Path 41" d="M1092.12,4151.16l-15.77,15.79a2.994,2.994,0,0,0,0,4.25l15.77,15.79a3,3,0,0,0,4.24,0l15.77-15.79a3.012,3.012,0,0,0,0-4.25l-15.77-15.79A2.981,2.981,0,0,0,1092.12,4151.16Z" fill="#3b5d3e"/>
      <path id="Path_42" data-name="Path 42" d="M1017.29,4226.07l-15.77,15.79a3.012,3.012,0,0,0,0,4.25l15.77,15.79a3,3,0,0,0,4.24,0l15.77-15.79a3.012,3.012,0,0,0,0-4.25l-15.77-15.79A2.982,2.982,0,0,0,1017.29,4226.07Z" fill="#3b5d3e"/>
    </g>
  </g>
</svg>
