<svg xmlns="http://www.w3.org/2000/svg" xmlns:xlink="http://www.w3.org/1999/xlink" width="428" height="759" viewBox="0 0 428 759">
  <defs>
    <clipPath id="clip-path">
      <rect id="Rectangle_57" data-name="Rectangle 57" width="428" height="759" transform="translate(0 4972)" fill="#fff"/>
    </clipPath>
  </defs>
  <g id="wallpaper-mobile" transform="translate(0 -4972)" clip-path="url(#clip-path)">
    <rect id="Rectangle_55" data-name="Rectangle 55" width="428" height="759" transform="translate(0 4972)" fill="#48674b"/>
    <path id="Path_214" data-name="Path 214" d="M462.687,4997.72a3,3,0,0,1,.9,2.29l-2.916,62.43a3.019,3.019,0,0,1-.888,2L245.432,5276.13a2.983,2.983,0,0,1-2.109.87H185.087a2.984,2.984,0,0,1-2.109-.87l-56.19-55.55a3,3,0,0,1,0-4.27l28.158-27.85a3,3,0,0,1,4.24.02l54.2,54.65a3,3,0,0,0,4.244.02l87.015-86.42a3,3,0,0,0,.018-4.24L92.433,4938.1a3,3,0,0,0-4.255-.01l-85.52,85.65a2.994,2.994,0,0,0-.015,4.22l124.523,126.49a3,3,0,0,1,.058,4.15l-26.5,28.48a3.005,3.005,0,0,1-4.31.09L-35.044,5056.65a3.016,3.016,0,0,1-.882-2.3l3.255-59.05a3.026,3.026,0,0,1,.885-1.97l214.764-212.46a2.985,2.985,0,0,1,2.11-.87h60.493a2.992,2.992,0,0,1,2.129.89L375.2,4909.31a3,3,0,0,1,.006,4.22l-28.217,28.57a3,3,0,0,1-4.276-.01L218.366,4815.36a3,3,0,0,0-4.247-.04l-87.354,86.08a3,3,0,0,0-.034,4.24l211.477,215.12a3,3,0,0,0,4.267.01l85.115-85.62a3,3,0,0,0,0-4.23l-54.911-55.36a3.008,3.008,0,0,1,.081-4.31l29.972-28.02a3,3,0,0,1,4.144.04Z" fill="#415e43"/>
    <path id="Path_215" data-name="Path 215" d="M250.129,4911.18l-28.438,28.48a3.01,3.01,0,0,0,0,4.25l28.438,28.48a3,3,0,0,0,4.24,0l28.438-28.48a3.01,3.01,0,0,0,0-4.25l-28.438-28.48A3,3,0,0,0,250.129,4911.18Z" fill="#415e43"/>
    <path id="Path_216" data-name="Path 216" d="M127.942,5033.51,99.5,5061.99a3.01,3.01,0,0,0,0,4.25l28.438,28.48a3,3,0,0,0,4.24,0l28.438-28.48a3.01,3.01,0,0,0,0-4.25l-28.438-28.48A3,3,0,0,0,127.942,5033.51Z" fill="#415e43"/>
    <g id="Group_22" data-name="Group 22">
      <path id="Path_219" data-name="Path 219" d="M366.009,5492.96a3,3,0,0,1,.9,2.29l-1.74,37.26a2.992,2.992,0,0,1-.889,1.99l-130.6,128.98a2.98,2.98,0,0,1-2.108.87H196.866a2.981,2.981,0,0,1-2.109-.87l-33.234-32.85a3.005,3.005,0,0,1,0-4.27l15.582-15.41a2.99,2.99,0,0,1,4.24.02l31.554,31.81a3,3,0,0,0,4.244.02l51.637-51.28a3,3,0,0,0,.018-4.24L140.472,5457.65a2.991,2.991,0,0,0-4.255-.01l-50.729,50.8a3.007,3.007,0,0,0-.015,4.23l74.665,75.84a3,3,0,0,1,.058,4.15l-14.653,15.75a3,3,0,0,1-4.31.08l-79.277-78.71a2.993,2.993,0,0,1-.882-2.29l1.94-35.2a2.98,2.98,0,0,1,.886-1.96l130.858-129.46a2.981,2.981,0,0,1,2.11-.87h36.082a2.992,2.992,0,0,1,2.129.89l76.917,77.48a3,3,0,0,1,.006,4.22l-15.64,15.83a3,3,0,0,1-4.276,0l-74.5-75.94a3,3,0,0,0-4.247-.03L161.5,5433.53a3,3,0,0,0-.034,4.24L289.33,5567.83a3.006,3.006,0,0,0,4.267.02l50.479-50.78a3,3,0,0,0,0-4.23l-31.97-32.24a3,3,0,0,1,.081-4.3l16.668-15.59a3.005,3.005,0,0,1,4.144.05Z" fill="#3b5d3e"/>
      <path id="Path_220" data-name="Path 220" d="M235.4,5441.16l-15.772,15.79a3.01,3.01,0,0,0,0,4.25l15.772,15.79a3,3,0,0,0,4.239,0l15.772-15.79a3.01,3.01,0,0,0,0-4.25l-15.772-15.79A2.98,2.98,0,0,0,235.4,5441.16Z" fill="#3b5d3e"/>
      <path id="Path_221" data-name="Path 221" d="M160.572,5516.07,144.8,5531.86a3.01,3.01,0,0,0,0,4.25l15.771,15.79a3,3,0,0,0,4.24,0l15.771-15.79a3.01,3.01,0,0,0,0-4.25l-15.771-15.79A2.982,2.982,0,0,0,160.572,5516.07Z" fill="#3b5d3e"/>
    </g>
  </g>
</svg>
