<svg xmlns="http://www.w3.org/2000/svg" width="17.54" height="16.002" viewBox="0 0 17.54 16.002">
  <g id="chat" transform="translate(-1029.23 -3629.5)">
    <path id="Path_21" data-name="Path 21" d="M1030.51,3630.79c-1.28,1.28-1.28,3.35-1.28,7.48v6.13a1.1,1.1,0,0,0,1.87.78l2.35-2.36a.574.574,0,0,1,.17-.14.621.621,0,0,1,.22-.02h6.35a11.114,11.114,0,0,0,3.88-.33,4.42,4.42,0,0,0,2.37-2.38,22.852,22.852,0,0,0,0-7.74,4.267,4.267,0,0,0-.95-1.42,4.4,4.4,0,0,0-1.42-.96,11.107,11.107,0,0,0-3.88-.33H1038C1033.86,3629.5,1031.8,3629.5,1030.51,3630.79Z" fill="rgba(72,103,75,0.5)" fill-rule="evenodd"/>
    <path id="Path_22" data-name="Path 22" d="M1034.16,3634.44h7.68m-7.68,3.29h5.49" fill="none" stroke="#486767" stroke-linecap="round" stroke-linejoin="round" stroke-width="1.25"/>
  </g>
</svg>
