<svg xmlns="http://www.w3.org/2000/svg" width="16.46" height="16.625" viewBox="0 0 16.46 16.625">
  <g id="colmun" transform="translate(-1148.77 -3628.875)">
    <path id="Path_24" data-name="Path 24" d="M1152.43,3630.89a4.256,4.256,0,0,0-1.16.17,3.624,3.624,0,0,0-2.31,2.31,9.089,9.089,0,0,0-.19,2.67.62.62,0,0,0,.01.16.146.146,0,0,0,.06.09.2.2,0,0,0,.09.06.62.62,0,0,0,.16.01h15.82a.62.62,0,0,0,.16-.01.2.2,0,0,0,.09-.06.146.146,0,0,0,.06-.09.668.668,0,0,0,.01-.17,9.048,9.048,0,0,0-.19-2.66,3.624,3.624,0,0,0-2.31-2.31,4.319,4.319,0,0,0-1.16-.17v2.27a1.369,1.369,0,0,1-.4.97,1.376,1.376,0,0,1-1.94,0,1.369,1.369,0,0,1-.4-.97v-2.29h-3.66v2.29a1.369,1.369,0,0,1-.4.97,1.376,1.376,0,0,1-1.94,0,1.369,1.369,0,0,1-.4-.97Z" fill="#486767" fill-rule="evenodd"/>
    <path id="Path_25" data-name="Path 25" d="M1148.77,3637.73c0-.22,0-.33.07-.39s.17-.07.39-.07h15.54c.22,0,.33,0,.39.07s.07.17.07.39v.46c0,3.44,0,5.17-1.07,6.24s-2.8,1.07-6.25,1.07h-1.82c-3.45,0-5.18,0-6.25-1.07s-1.07-2.8-1.07-6.24Z" fill="rgba(72,103,75,0.5)"/>
    <path id="Path_26" data-name="Path 26" d="M1153.8,3629.5v3.66m6.4-3.66v3.66" fill="none" stroke="#486767" stroke-linecap="round" stroke-width="1.25"/>
  </g>
</svg>
