<svg xmlns="http://www.w3.org/2000/svg" width="738.139" height="734.35" viewBox="0 0 738.139 734.35">
  <g id="logo-green-big" transform="translate(3745.93 -3589)">
    <path id="Path_290" data-name="Path 290" d="M592.3,4177.15a3,3,0,0,1,.9,2.29l-4.364,93.44a2.994,2.994,0,0,1-.889,2l-317.537,313.6a2.982,2.982,0,0,1-2.108.87H181.082a2.984,2.984,0,0,1-2.109-.87L94.5,4504.97a3,3,0,0,1,0-4.27l43.654-43.18a3.009,3.009,0,0,1,4.24.02l82.1,82.79a3,3,0,0,0,4.244.01l130.6-129.71a3,3,0,0,0,.018-4.24L43.754,4087.58a3,3,0,0,0-4.255-.01L-88.884,4216.14a3.007,3.007,0,0,0-.015,4.23L97.05,4409.25a3,3,0,0,1,.058,4.15l-41.1,44.17a3,3,0,0,1-4.31.09l-195.741-194.35a3,3,0,0,1-.882-2.29l4.875-88.45a3.026,3.026,0,0,1,.885-1.97l318.139-314.73a2.985,2.985,0,0,1,2.11-.87h90.568a3,3,0,0,1,2.129.89l189.79,191.18a3,3,0,0,1,.006,4.22l-43.712,44.26a3,3,0,0,1-4.276-.01L229.836,3906.22a3.008,3.008,0,0,0-4.247-.04L94.477,4035.38a3,3,0,0,0-.034,4.24l314.489,319.91a3,3,0,0,0,4.267.01l127.788-128.55a3,3,0,0,0,0-4.23l-83.175-83.86a3,3,0,0,1,.081-4.3l46.362-43.36a3,3,0,0,1,4.144.05Z" transform="translate(-3601 -266)" fill="#415e43"/>
    <path id="Path_292" data-name="Path 292" d="M278.787,4047.82l-44.044,44.11a3,3,0,0,0,0,4.24l44.044,44.11a2.981,2.981,0,0,0,4.24,0l44.044-44.11a3,3,0,0,0,0-4.24l-44.044-44.11A2.981,2.981,0,0,0,278.787,4047.82Z" transform="translate(-3601 -266)" fill="#415e43"/>
    <path id="Path_291" data-name="Path 291" d="M98.248,4228.56,54.2,4272.67a3.01,3.01,0,0,0,0,4.25l44.045,44.11a3,3,0,0,0,4.239,0l44.045-44.11a3.01,3.01,0,0,0,0-4.25l-44.045-44.11A3,3,0,0,0,98.248,4228.56Z" transform="translate(-3601 -266)" fill="#415e43"/>
  </g>
</svg>
