<svg xmlns="http://www.w3.org/2000/svg" width="305.844" height="304.35" viewBox="0 0 305.844 304.35">
  <g id="logo-green-smal" transform="translate(-917.79 -4070)">
    <path id="Path_40" data-name="Path 40" d="M1222.73,4202.96a3.014,3.014,0,0,1,.9,2.29l-1.74,37.26a2.956,2.956,0,0,1-.89,1.99l-130.6,128.98a2.982,2.982,0,0,1-2.11.87h-34.7a2.982,2.982,0,0,1-2.11-.87l-33.24-32.85a3.018,3.018,0,0,1,0-4.27l15.59-15.41a2.978,2.978,0,0,1,4.23.02l31.56,31.81a2.99,2.99,0,0,0,4.24.02l51.64-51.28a3.009,3.009,0,0,0,.02-4.24L997.192,4167.65a2.991,2.991,0,0,0-4.255-.01l-50.729,50.8a3.007,3.007,0,0,0-.015,4.23l74.667,75.84a3.013,3.013,0,0,1,.06,4.15l-14.66,15.75a2.993,2.993,0,0,1-4.307.08l-79.277-78.71a2.994,2.994,0,0,1-.882-2.29l1.94-35.2a2.98,2.98,0,0,1,.885-1.96l130.861-129.46a2.982,2.982,0,0,1,2.11-.87h36.08a3.006,3.006,0,0,1,2.13.89l76.92,77.48a3,3,0,0,1,0,4.22l-15.64,15.83a2.991,2.991,0,0,1-4.27,0l-74.51-75.94a2.991,2.991,0,0,0-4.24-.03l-51.84,51.08a3,3,0,0,0-.03,4.24l127.86,130.06a3.009,3.009,0,0,0,4.27.02l50.48-50.78a3.006,3.006,0,0,0,0-4.23l-31.97-32.24a3,3,0,0,1,.08-4.3l16.67-15.59a3,3,0,0,1,4.14.05Z" fill="#3b5d3e"/>
    <path id="Path_41" data-name="Path 41" d="M1092.12,4151.16l-15.77,15.79a2.994,2.994,0,0,0,0,4.25l15.77,15.79a3,3,0,0,0,4.24,0l15.77-15.79a3.012,3.012,0,0,0,0-4.25l-15.77-15.79A2.981,2.981,0,0,0,1092.12,4151.16Z" fill="#3b5d3e"/>
    <path id="Path_42" data-name="Path 42" d="M1017.29,4226.07l-15.77,15.79a3.012,3.012,0,0,0,0,4.25l15.77,15.79a3,3,0,0,0,4.24,0l15.77-15.79a3.012,3.012,0,0,0,0-4.25l-15.77-15.79A2.982,2.982,0,0,0,1017.29,4226.07Z" fill="#3b5d3e"/>
  </g>
</svg>
